<?xml version="1.0" encoding="utf-8"?>
<!-- Generator: Adobe Illustrator 24.0.1, SVG Export Plug-In . SVG Version: 6.00 Build 0)  -->
<svg version="1.1" id="Layer_1" xmlns="http://www.w3.org/2000/svg" xmlns:xlink="http://www.w3.org/1999/xlink" x="0px" y="0px"
	 viewBox="0 0 175 90.8" style="enable-background:new 0 0 175 90.8;" xml:space="preserve">
<style type="text/css">
	.st0{fill:#8BD0CE;}
</style>
<title>cloudy</title>
<g>
	<path class="st0" d="M157.3,90.2c2.1-0.3,4.1-1,6-2c7-3.8,11.7-13.1,11.7-20.9c0-13.4-11.2-24.2-25.1-24.2c-0.9,0-1.8,0-2.7,0.1
		c0.8-2.9,1.2-5.9,1.2-8.9c0-19-15.9-34.3-35.6-34.3c-17,0-31.3,11.6-34.7,27c-1.4-0.3-2.8-0.4-4.2-0.4c-10.6,0-19.2,8.3-19.2,18.5
		c0,0.9,0.1,1.8,0.2,2.7c-4.3-3.1-9.6-4.7-14.9-4.7C26.3,43.1,15,53.9,15,67.3c0.1,6.5,2.8,12.7,7.5,17.2c5.3,5.2,11.3,6.1,18.5,6.1
		c20.4-0.1,40.8-0.1,61.2-0.1c15.1,0,30.3,0.1,45.4,0.2C150.8,90.8,154.1,90.7,157.3,90.2z"/>
	<path class="st0" d="M40.1,38.5c-11.7-0.1-22.4,6.7-27.3,17.4c-0.2,0.4-0.3,0.9-0.4,1.4c-2.9-0.3-5.6-1.6-7.8-3.7
		c-3-2.8-4.7-6.8-4.8-10.9c0-8.5,7.1-15.4,15.9-15.4c3.4,0,6.7,1,9.5,3C24.4,24,28.7,18,35,17c0.8-0.1,1.6-0.2,2.4-0.1
		c0.9,0,1.8,0.1,2.6,0.3C42.5,7,51.6-0.1,62,0c8-0.1,15.4,4,19.6,10.8c-0.7,0.3-1.3,0.8-1.8,1.5c-2.1,3-3.8,6.3-5,9.8H74
		c-11.1-0.1-20.8,7.5-23.3,18.3C47.3,39.1,43.7,38.5,40.1,38.5z"/>
</g>
</svg>
