<svg id="Layer_1" data-name="Layer 1" xmlns="http://www.w3.org/2000/svg" viewBox="0 0 191.48 160.64"><defs><style>.cls-1{opacity:0;}.cls-2{fill:#e3a7a6;}.cls-3{fill:#c16768;}.cls-4{fill:#5c4a4a;}.cls-5{fill:#815555;}.cls-6{fill:#fff;}.cls-7{fill:#e58989;}</style></defs><title>emote2</title><g class="cls-1"><path class="cls-2" d="M152.41,89.39a54.37,54.37,0,1,0-108.73,0c0,.41,0,.83,0,1.24s0,.56,0,.84a54.37,54.37,0,1,0,108.73,0c0-.25,0-.5,0-.75C152.4,90.27,152.41,89.83,152.41,89.39Z" transform="translate(-4.26 -19.68)"/><path class="cls-3" d="M98.72,127.59a26.41,26.41,0,0,1-20.57-10,1.3,1.3,0,0,1,.22-1.82,1.29,1.29,0,0,1,1.81.21,23.36,23.36,0,0,0,37.6-1,1.29,1.29,0,1,1,2.12,1.47,26.2,26.2,0,0,1-18.29,10.94A25.46,25.46,0,0,1,98.72,127.59Z" transform="translate(-4.26 -19.68)"/><path class="cls-4" d="M63.39,90.24l-.26,0a1.3,1.3,0,0,1-1-1.53,12.79,12.79,0,0,1,6.5-8.83l.07,0c3.42-1.66,11.06-3.19,15.54,2.91a1.29,1.29,0,1,1-2.08,1.53A8.13,8.13,0,0,0,74.52,81a14.46,14.46,0,0,0-4.66,1.18,10.24,10.24,0,0,0-5.2,7.07A1.3,1.3,0,0,1,63.39,90.24Z" transform="translate(-4.26 -19.68)"/><path class="cls-4" d="M63.17,90.19a1.23,1.23,0,0,1-.49-.1L57.2,87.81a1.29,1.29,0,1,1,1-2.39l5.48,2.28a1.29,1.29,0,0,1-.5,2.49Z" transform="translate(-4.26 -19.68)"/><ellipse class="cls-4" cx="74.5" cy="71.72" rx="8.4" ry="11.43"/><path class="cls-5" d="M61.57,73.07A1.35,1.35,0,0,1,61.1,73a1.29,1.29,0,0,1-.73-1.67,13.5,13.5,0,0,1,23.86-2.78A1.29,1.29,0,0,1,82.08,70a10.91,10.91,0,0,0-19.3,2.28A1.3,1.3,0,0,1,61.57,73.07Z" transform="translate(-4.26 -19.68)"/><path class="cls-4" d="M114.49,90.56l-.23,0a1.29,1.29,0,0,1-1-1.5,12.77,12.77,0,0,1,6.56-9.19l.08,0c3.41-1.66,11.06-3.19,15.53,2.91a1.29,1.29,0,1,1-2.08,1.53,8.12,8.12,0,0,0-7.63-3.3A14.55,14.55,0,0,0,121,82.13a10.26,10.26,0,0,0-5.26,7.36A1.29,1.29,0,0,1,114.49,90.56Z" transform="translate(-4.26 -19.68)"/><path class="cls-4" d="M114.33,90.84a1.23,1.23,0,0,1-.49-.1l-5.48-2.29a1.29,1.29,0,1,1,1-2.38l5.48,2.28a1.29,1.29,0,0,1-.5,2.49Z" transform="translate(-4.26 -19.68)"/><ellipse class="cls-4" cx="125.66" cy="71.72" rx="8.4" ry="11.43"/><path class="cls-6" d="M110.15,73.07a1.27,1.27,0,0,1-.47-.09,1.29,1.29,0,0,1-.74-1.67,13.5,13.5,0,0,1,23.86-2.78A1.29,1.29,0,0,1,130.65,70a10.91,10.91,0,0,0-19.3,2.28A1.28,1.28,0,0,1,110.15,73.07Z" transform="translate(-4.26 -19.68)"/><ellipse class="cls-7" cx="59.1" cy="89.06" rx="12.25" ry="5.55"/><ellipse class="cls-7" cx="128.76" cy="89.06" rx="12.25" ry="5.55"/><path class="cls-5" d="M169.46,120.5C171.61,92.18,168,62,150.56,40.76,134.26,21,107.38,16.14,84.78,22a24.82,24.82,0,0,0-8.53,3.62,13.33,13.33,0,0,0-1.68,1.5l-.07,0c-5.59,1.88-12.23,7.12-12.22,7.13-.75.57-1.49,1.15-2.21,1.75-12.5,10.5-21.58,26.45-25.94,43.48-5.75,22.46-5.44,49.17.42,71.55,2.55,9.76,8.68,24.13,20.05,25.9A38.82,38.82,0,0,0,53,169.74a11.43,11.43,0,0,1-.48-3.39,45.88,45.88,0,0,0,7.51,8.91,29.24,29.24,0,0,0,4.43,3.39,14.58,14.58,0,0,0,2.3,1.16c.2.08,1.93.41,2,.51a133,133,0,0,1-6.64-27S59,116.16,58.65,110.56c-.12-3-.17-6.1-.12-9.14.15-9.77,1.2-19.67,4.63-28.65,2.29-6,5.65-11.7,7.28-17.85a26.83,26.83,0,0,0,1-6.59c0-.62,0-1.24-.05-1.86,0-.87-.13-1.74-.23-2.61a17.32,17.32,0,0,0,1,2.54S82.36,75,134.71,77.71a.2.2,0,0,1,.19.17,233.61,233.61,0,0,1,4.27,26.78c2.72,25.12,1.86,51.7-6.84,75.66,0-.1,1.77-.43,2-.51a14.58,14.58,0,0,0,2.3-1.16,29.24,29.24,0,0,0,4.43-3.39,45.88,45.88,0,0,0,7.51-8.91,11.43,11.43,0,0,1-.48,3.39,40,40,0,0,0-1.41,6.45c-.09,1.14,4.43-1.78,4.94-2.13a31.71,31.71,0,0,0,6.9-5.69,27.76,27.76,0,0,0,1.84-2.47C168.59,153.57,168.4,134.51,169.46,120.5Z" transform="translate(-4.26 -19.68)"/></g><path class="cls-2" d="M143.16,110.92a49.18,49.18,0,1,0-98.35,0c0,.37,0,.75,0,1.12s0,.51,0,.77a49.18,49.18,0,1,0,98.35,0c0-.23,0-.46,0-.69C143.15,111.72,143.16,111.32,143.16,110.92Z" transform="translate(-4.26 -19.68)"/><polygon class="cls-2" points="65.79 60.47 63.71 36.76 77.32 36.76 87.42 57.56 65.79 60.47"/><ellipse class="cls-7" cx="93.56" cy="91.16" rx="47.29" ry="8.6"/><path class="cls-3" d="M117.05,142.5l-18.11,9.37a.28.28,0,0,0,.08.52l11.75,2a.29.29,0,0,0,.29-.14l6.37-11.31A.29.29,0,0,0,117.05,142.5Z" transform="translate(-4.26 -19.68)"/><path class="cls-5" d="M121.37,43.57a.88.88,0,0,1-.78-.48c-1.72-3.35-4-5.42-6.94-6.17C108,35.46,102,39.43,102,39.47A.88.88,0,0,1,101,38c.27-.18,6.7-4.44,13.09-2.8,3.4.88,6.12,3.26,8.07,7.08a.88.88,0,0,1-.38,1.18A.85.85,0,0,1,121.37,43.57Z" transform="translate(-4.26 -19.68)"/><path class="cls-5" d="M188.26,139.3c-.32,0-.64,0-1-.05a6.42,6.42,0,0,1-5.57-4.47c-1.28-3.93.42-8.58,1-9.91,5.13-12.36-6.43-18.43-6.93-18.68a.88.88,0,0,1,.8-1.57c.13.07,13.5,7,7.75,20.92-1,2.45-1.79,6-.92,8.69a4.68,4.68,0,0,0,4.11,3.27,7.05,7.05,0,0,0,6.6-3.07.88.88,0,0,1,1.5.92A8.76,8.76,0,0,1,188.26,139.3Z" transform="translate(-4.26 -19.68)"/><path class="cls-5" d="M30.62,65.31a4.17,4.17,0,0,1-1-.11,5.32,5.32,0,0,1-3.83-4.15,9.39,9.39,0,0,1,.64-5.36.88.88,0,1,1,1.64.62,7.75,7.75,0,0,0-.56,4.37A3.58,3.58,0,0,0,30,63.49a4.29,4.29,0,0,0,2.34-.27c3.12-1.09,5.29-3.77,6.11-7.54l.21-1a16.74,16.74,0,0,1,1.63-5.14c3.7-6.48,10.38-4,14.37-2.45a34.78,34.78,0,0,0,9.25,1.82.88.88,0,0,1-.15,1.75A36.75,36.75,0,0,1,54,48.71c-4.88-1.85-9.49-3.1-12.22,1.68A15.41,15.41,0,0,0,40.36,55c-.07.34-.14.69-.22,1-1,4.39-3.52,7.53-7.24,8.83A6.9,6.9,0,0,1,30.62,65.31Z" transform="translate(-4.26 -19.68)"/><path class="cls-5" d="M23.14,102.56a16.64,16.64,0,0,1-3.61-.37,9.74,9.74,0,0,1-6-3.86c-1.39-2-1.85-4.82-1.38-8.24a13.29,13.29,0,0,1,2.3-6.32,7.36,7.36,0,0,1,6.19-3.14,5.83,5.83,0,0,1,4.64,2.85A5.4,5.4,0,0,1,25.19,89c-1.09,1.72-3.14,2.79-6.11,3.15a.88.88,0,1,1-.21-1.74c2.42-.3,4-1.09,4.83-2.34a3.69,3.69,0,0,0,0-3.68,4.13,4.13,0,0,0-3.24-2,5.61,5.61,0,0,0-4.66,2.44,11.62,11.62,0,0,0-2,5.51c-.41,3,0,5.34,1.09,7a8,8,0,0,0,5,3.13,19.44,19.44,0,0,0,6.48.1.89.89,0,0,1,1,.77.87.87,0,0,1-.77,1A27.53,27.53,0,0,1,23.14,102.56Z" transform="translate(-4.26 -19.68)"/><path class="cls-5" d="M154.66,55.36a4.89,4.89,0,0,1-.66,0,.87.87,0,1,1,.24-1.73,3.6,3.6,0,0,0,2.7-.83,4.45,4.45,0,0,0,1.7-3,6.18,6.18,0,0,0-3.29-5.67,10.71,10.71,0,0,0-7.13-.9,27.33,27.33,0,0,0-7,2.64c-3.12,1.5-6.39,3.06-10,3a.88.88,0,0,1-.86-.89.87.87,0,0,1,.9-.86c3.18.06,6.09-1.34,9.16-2.82a29.79,29.79,0,0,1,7.42-2.78,12.47,12.47,0,0,1,8.31,1.1,7.89,7.89,0,0,1,4.17,7.37A6.3,6.3,0,0,1,158,54.13,5.47,5.47,0,0,1,154.66,55.36Z" transform="translate(-4.26 -19.68)"/><path class="cls-5" d="M55.22,156.64a4.68,4.68,0,0,1-3.6-1.41c-1.63-1.76-1.8-5-.45-8.68.44-1.21,1-2.38,1.52-3.52s1.1-2.33,1.53-3.52c2.68-7.48-2.82-14.88-8.85-19.31a.88.88,0,1,1,1-1.41c6.54,4.8,12.46,12.92,9.46,21.31-.46,1.27-1,2.49-1.59,3.68s-1.05,2.24-1.47,3.38c-1.1,3-1.06,5.63.09,6.87s3.06.92,4.51.5a.88.88,0,1,1,.49,1.69A10,10,0,0,1,55.22,156.64Z" transform="translate(-4.26 -19.68)"/><path class="cls-5" d="M133.28,132.9A6.7,6.7,0,0,1,130,132a15,15,0,0,1-3.38-2.84.88.88,0,0,1,0-1.24.87.87,0,0,1,1.24,0,14,14,0,0,0,3,2.53,3.8,3.8,0,0,0,5.45-1.11c1.41-1.93,1.61-4.2,1.81-6.61a16,16,0,0,1,1.52-6.55,12.5,12.5,0,0,1,5.69-5.34.88.88,0,0,1,.73,1.6,10.69,10.69,0,0,0-4.88,4.58,14.36,14.36,0,0,0-1.31,5.85c-.22,2.55-.44,5.18-2.15,7.51a6,6,0,0,1-3,2.28A4.8,4.8,0,0,1,133.28,132.9Z" transform="translate(-4.26 -19.68)"/><path class="cls-4" d="M84.75,99.08a1,1,0,0,0-.73-.57,1.07,1.07,0,0,0,.33-1.31,1,1,0,0,0-1.4-.49l-.07,0a1.05,1.05,0,0,0-1.4-1.4L60.15,105.48a1.05,1.05,0,0,0,.45,2,1,1,0,0,0,.45-.1l.08,0a1,1,0,0,0,0,.9,1,1,0,0,0,1.25.55,1,1,0,0,0,0,.92,1.05,1.05,0,0,0,1.4.5l1.67-.79a1,1,0,0,0,0,.82,1.05,1.05,0,0,0,1,.6,1.11,1.11,0,0,0,.46-.11l17.21-8.32a1,1,0,0,0,0-1.87l.14-.07A1.05,1.05,0,0,0,84.75,99.08Z" transform="translate(-4.26 -19.68)"/><path class="cls-4" d="M135.49,105.48,114.16,95.34a1.05,1.05,0,0,0-1.4,1.4l-.07,0a1,1,0,0,0-1.4.49,1.07,1.07,0,0,0,.33,1.31,1,1,0,0,0-.74.57,1.06,1.06,0,0,0,.5,1.4l.14.07a1,1,0,0,0,0,1.87l17.21,8.32a1,1,0,0,0,1.41-.49,1,1,0,0,0,0-.82l1.67.79a1,1,0,0,0,.45.1,1.05,1.05,0,0,0,.95-.6,1,1,0,0,0,0-.92,1.12,1.12,0,0,0,.31,0,1,1,0,0,0,.94-1.5l.08,0a1,1,0,0,0,.45.1,1.05,1.05,0,0,0,.45-2Z" transform="translate(-4.26 -19.68)"/><path class="cls-5" d="M60.74,96.54a1.17,1.17,0,0,1-.37-2.28c2.13-.71,4.32-1.37,6.43-2,2.94-.89,6-1.82,8.9-2.87,4.36-1.58,7.35-3.77,8.88-6.52a1.17,1.17,0,1,1,2,1.13c-1.81,3.26-5.21,5.81-10.13,7.59-3,1.07-6,2-9,2.91-2.1.64-4.27,1.3-6.38,2A1.13,1.13,0,0,1,60.74,96.54Z" transform="translate(-4.26 -19.68)"/><path class="cls-6" d="M131.9,89.34h-.15L105.91,85a.89.89,0,0,1-.63-.45l-2.9-5.39a.87.87,0,1,1,1.54-.83l2.7,5L132,87.6a.88.88,0,0,1-.14,1.74Z" transform="translate(-4.26 -19.68)"/><path class="cls-5" d="M167.48,94.3c-2.5-1.57-5.36-2.8-7.1-5.19-1.32-1.83-1.8-4.12-2.38-6.31a60.48,60.48,0,0,0-22.4-33c-16.27-12-38.41-15.15-57.12-7.22-2.33,1-4.7,2.25-6.16,4.39-1.58,2.31-2.36,1.66-5,1.79s-5.37.18-8,.51a34.48,34.48,0,0,0-13.48,4.16c-12.32,7.31-13.07,21.34-10.66,34,1.74,9.16-6.55,12.94-6.55,12.94-12.22,1.15-19,11.5-19,11.5-9.82,15.5-3.06,31.21-3.06,31.21.66-12.45,10-15.71,10-15.71-4.58,8.08-2.4,25.54-2.4,25.54,2.38,3.81,7.31,5.5,11.44,6.54,3.77.95,7.75.61,11.51,1.64a21.11,21.11,0,0,1,7.39,4c.61.48,3.74-7.17,3.92-7.8A45.49,45.49,0,0,0,50,147.56c.43-7,.46-14.91-1.71-21.62-.68-2.13-1.66-4.21-1.77-6.45-.19-4.06,2.49-7.68,5.37-10.54A80.28,80.28,0,0,0,70.56,78.77a95.55,95.55,0,0,0,3.57-12.41c.1-.45.63-2,.85-3.26a50,50,0,0,0,9.33,14.1c11,11.62,25.56,15.51,41,16.48A32.06,32.06,0,0,1,134,95.23a13.22,13.22,0,0,1,6.46,4.1c2.38,3,2.4,6.8,2.51,10.48.17,5.32-.88,10.58-1.92,15.76-.56,2.82-1.13,5.63-1.69,8.44-.51,2.55-.78,5.21-1.43,7.71a61.31,61.31,0,0,1-3.72,10.34,53.66,53.66,0,0,1-4.47,7.87c-.38.55-1.35,2.45-2.05,2.67,10-3.22,17.59-16.23,17.59-16.23l.58,8.32,28.73,1.17C181.76,137.43,187.76,107,167.48,94.3Z" transform="translate(-4.26 -19.68)"/><path class="cls-3" d="M115.41,112.67a.59.59,0,0,1-.52-.32l-4.63-9a.58.58,0,1,1,1-.53l4.63,9a.57.57,0,0,1-.26.78A.48.48,0,0,1,115.41,112.67Z" transform="translate(-4.26 -19.68)"/></svg>