<svg id="Layer_1" data-name="Layer 1" xmlns="http://www.w3.org/2000/svg" viewBox="0 0 139.68 160.38"><defs><style>.cls-1{fill:#e3a7a6;}.cls-2{fill:#c16768;}.cls-3{fill:#5c4a4a;}.cls-4{fill:#815555;}.cls-5{fill:#fff;}.cls-6{fill:#e58989;}</style></defs><title>emote1</title><path class="cls-1" d="M153.58,89.26a54.37,54.37,0,0,0-108.73,0c0,.42,0,.83,0,1.25s0,.56,0,.84a54.37,54.37,0,1,0,108.73,0c0-.26,0-.51,0-.76C153.58,90.15,153.58,89.71,153.58,89.26Z" transform="translate(-30.16 -19.81)"/><path class="cls-2" d="M99.9,127.46a26.39,26.39,0,0,1-20.57-10,1.3,1.3,0,0,1,.22-1.82,1.29,1.29,0,0,1,1.81.22,23.35,23.35,0,0,0,37.59-1,1.3,1.3,0,0,1,2.13,1.48,26.27,26.27,0,0,1-18.29,10.94A25.45,25.45,0,0,1,99.9,127.46Z" transform="translate(-30.16 -19.81)"/><path class="cls-3" d="M64.57,90.11a1.15,1.15,0,0,1-.26,0,1.29,1.29,0,0,1-1-1.52,12.74,12.74,0,0,1,6.31-8.72l.45-.24c3.5-1.63,11-3,15.35,3a1.3,1.3,0,1,1-2.09,1.53,8.11,8.11,0,0,0-7.62-3.31,14.58,14.58,0,0,0-4.4,1.07,4.44,4.44,0,0,0-.49.24,10.2,10.2,0,0,0-5,7A1.3,1.3,0,0,1,64.57,90.11Z" transform="translate(-30.16 -19.81)"/><path class="cls-3" d="M64.35,90.07a1.48,1.48,0,0,1-.5-.1l-5.48-2.29a1.29,1.29,0,0,1,1-2.38l5.48,2.28a1.3,1.3,0,0,1-.5,2.49Z" transform="translate(-30.16 -19.81)"/><ellipse class="cls-3" cx="49.78" cy="71.47" rx="8.4" ry="11.43"/><path class="cls-4" d="M62.75,72.94a1.27,1.27,0,0,1-1.2-1.76A13.5,13.5,0,0,1,85.4,68.4a1.29,1.29,0,1,1-2.14,1.45A10.91,10.91,0,0,0,64,72.12,1.3,1.3,0,0,1,62.75,72.94Z" transform="translate(-30.16 -19.81)"/><path class="cls-3" d="M115.67,90.43a.9.9,0,0,1-.23,0,1.29,1.29,0,0,1-1-1.5,12.72,12.72,0,0,1,6.36-9.07l.46-.24c3.5-1.63,10.95-3,15.35,3a1.29,1.29,0,1,1-2.08,1.53,8.13,8.13,0,0,0-7.63-3.31,15.15,15.15,0,0,0-4.4,1.06l-.49.25a10.29,10.29,0,0,0-5,7.24A1.29,1.29,0,0,1,115.67,90.43Z" transform="translate(-30.16 -19.81)"/><path class="cls-3" d="M115.51,90.71a1.23,1.23,0,0,1-.49-.1l-5.48-2.28a1.29,1.29,0,0,1,1-2.39L116,88.23a1.29,1.29,0,0,1-.5,2.48Z" transform="translate(-30.16 -19.81)"/><ellipse class="cls-3" cx="100.94" cy="71.47" rx="8.4" ry="11.43"/><path class="cls-5" d="M111.33,72.94a1.26,1.26,0,0,1-.47-.08,1.3,1.3,0,0,1-.74-1.68A13.5,13.5,0,0,1,134,68.4a1.3,1.3,0,0,1-2.15,1.45,10.91,10.91,0,0,0-19.3,2.27A1.29,1.29,0,0,1,111.33,72.94Z" transform="translate(-30.16 -19.81)"/><ellipse class="cls-6" cx="34.38" cy="88.8" rx="12.25" ry="5.55"/><ellipse class="cls-6" cx="104.04" cy="88.8" rx="12.25" ry="5.55"/><path class="cls-4" d="M169.62,120.37a217.56,217.56,0,0,0-.38-26.06c-1.71-21.61-8.32-44.84-25.15-59.6a61.69,61.69,0,0,0-42.87-14.85c-33.31,1.41-59,28.52-66.91,59.56-5.75,22.46-5.45,49.17.42,71.55,1.93,7.39,5.92,17.43,12.67,22.63a3.71,3.71,0,0,0,5.82-3.91v-.07a11.16,11.16,0,0,1-.48-3.39,45.18,45.18,0,0,0,7.51,8.9,29.3,29.3,0,0,0,4.43,3.4A14.86,14.86,0,0,0,67,179.68c.21.08,1.94.41,2,.51a133.57,133.57,0,0,1-6.63-26.85l0-.24c-.19-2.3-3.14-37.25-3.45-42.67-.12-3-.17-6.09-.12-9.14.15-9.76,1.2-19.67,4.63-28.64,2.28-6,5.65-11.71,7.28-17.85a26.43,26.43,0,0,0,.95-6.6c0-.62,0-1.24,0-1.86,0-.87-.14-1.74-.23-2.61a17.44,17.44,0,0,0,1,2.55s10.26,28.55,62.61,31.3a.21.21,0,0,1,.19.17,236.18,236.18,0,0,1,4.27,26.78c2.72,25.13,1.86,51.71-6.84,75.66,0-.1,1.76-.43,2-.51a14.43,14.43,0,0,0,2.29-1.15,28.89,28.89,0,0,0,4.44-3.4,45.53,45.53,0,0,0,7.51-8.9,11.48,11.48,0,0,1-.48,3.39,39.68,39.68,0,0,0-1.41,6.44c-.09,1.15,4.42-1.78,4.94-2.12,10.36-7,14.65-18.54,16-30.49C168.64,135.85,169.3,128.12,169.62,120.37Z" transform="translate(-30.16 -19.81)"/></svg>