<svg id="Layer_1" data-name="Layer 1" xmlns="http://www.w3.org/2000/svg" viewBox="0 0 183.22 31.99"><defs><style>.cls-1{fill:#f26c6e;}.cls-2{fill:#fff8cf;stroke:#f26c6e;stroke-linecap:round;stroke-linejoin:round;stroke-width:0.9px;}</style></defs><title>logo</title><path class="cls-1" d="M9.67,114.6a3.74,3.74,0,0,1-1.05-2.77V89.39a3.58,3.58,0,0,1,.92-2.65,3.59,3.59,0,0,1,2.64-.92h14.1a4.29,4.29,0,0,1,2.77.74,2.87,2.87,0,0,1,.88,2.32A2.7,2.7,0,0,1,29,91.15a4.4,4.4,0,0,1-2.74.71H16.21v5.46h9.23a4.26,4.26,0,0,1,2.75.75,2.84,2.84,0,0,1,.9,2.31,2.7,2.7,0,0,1-.9,2.26,4.39,4.39,0,0,1-2.75.72H16.21v8.47a3.77,3.77,0,0,1-1,2.79,3.73,3.73,0,0,1-2.75,1A3.72,3.72,0,0,1,9.67,114.6Z" transform="translate(-8.62 -84.23)"/><path class="cls-1" d="M47.29,95a3,3,0,0,1,.84,2.28,3.34,3.34,0,0,1-.77,2.44,4.77,4.77,0,0,1-2.79,1l-1.26.13a4.44,4.44,0,0,0-3,1.32,4.37,4.37,0,0,0-.9,2.91v7.18a3.14,3.14,0,0,1-1.07,2.58,4.56,4.56,0,0,1-5.33,0,3.14,3.14,0,0,1-1.07-2.58V97.69A3,3,0,0,1,33,95.22a3.9,3.9,0,0,1,2.58-.88,3.64,3.64,0,0,1,2.5.84A3,3,0,0,1,39,97.53v.79a5.59,5.59,0,0,1,2.2-2.85,6.39,6.39,0,0,1,3.21-1.09l.59,0A2.78,2.78,0,0,1,47.29,95Z" transform="translate(-8.62 -84.23)"/><path class="cls-1" d="M50.25,90.41a3.32,3.32,0,0,1-1.11-2.62,3.28,3.28,0,0,1,1.11-2.6,5.14,5.14,0,0,1,6,0,3.26,3.26,0,0,1,1.13,2.6,3.32,3.32,0,0,1-1.11,2.62,5,5,0,0,1-6,0Zm.34,24.38a3.11,3.11,0,0,1-1.07-2.58V97.78a3.08,3.08,0,0,1,1.07-2.58,4.54,4.54,0,0,1,5.32,0A3.08,3.08,0,0,1,57,97.78v14.43a3.11,3.11,0,0,1-1.07,2.58,4.54,4.54,0,0,1-5.32,0Z" transform="translate(-8.62 -84.23)"/><path class="cls-1" d="M80.3,112.63c0,1.84-1.11,2.76-3.35,2.76H63.74a3.24,3.24,0,0,1-2.4-.92,3,3,0,0,1-.92-2.22,3.77,3.77,0,0,1,1-2.56l8.81-9.44H63.53q-3.36,0-3.36-2.77t3.36-2.72H76.24a3.23,3.23,0,0,1,2.39.92,3,3,0,0,1,.92,2.22,3.71,3.71,0,0,1-1,2.52l-8.85,9.48H77C79.19,109.9,80.3,110.81,80.3,112.63Z" transform="translate(-8.62 -84.23)"/><path class="cls-1" d="M102.08,112.63q0,2.76-3.36,2.76H85.51a3.2,3.2,0,0,1-2.39-.92,3,3,0,0,1-.93-2.22,3.77,3.77,0,0,1,1-2.56l8.81-9.44H85.3q-3.36,0-3.36-2.77t3.36-2.72H98a3.22,3.22,0,0,1,2.39.92,3,3,0,0,1,.92,2.22,3.71,3.71,0,0,1-1,2.52l-8.85,9.48h7.3Q102.08,109.9,102.08,112.63Z" transform="translate(-8.62 -84.23)"/><path class="cls-2" d="M111.58,113.93a12.66,12.66,0,0,1-5.16-5.29,18.53,18.53,0,0,1,0-16.06,12.6,12.6,0,0,1,5.16-5.29,17.1,17.1,0,0,1,17.13,1,3.21,3.21,0,0,1,1,1.1,3.16,3.16,0,0,1,.32,1.51,3.38,3.38,0,0,1-.74,2.2,2.22,2.22,0,0,1-1.78.9,3.08,3.08,0,0,1-1.13-.19,7.06,7.06,0,0,1-1.18-.61,12.57,12.57,0,0,0-2.77-1.26,9.58,9.58,0,0,0-2.68-.37,6.73,6.73,0,0,0-5.56,2.24c-1.22,1.5-1.82,3.77-1.82,6.82s.6,5.36,1.82,6.86a6.76,6.76,0,0,0,5.56,2.24,7.37,7.37,0,0,0,2.43-.4c.78-.26,1.79-.68,3-1.24.59-.3,1-.51,1.3-.63a2.78,2.78,0,0,1,1-.16,2.22,2.22,0,0,1,1.78.9,3.36,3.36,0,0,1,.74,2.2,3.19,3.19,0,0,1-.32,1.49,3.07,3.07,0,0,1-1,1.11,17.14,17.14,0,0,1-17.13,1Z" transform="translate(-8.62 -84.23)"/><path class="cls-2" d="M149.54,96.54c1.52,1.52,2.29,3.84,2.29,6.94v8.77a3.28,3.28,0,0,1-1,2.49,3.6,3.6,0,0,1-2.62.91,3.49,3.49,0,0,1-2.41-.84,3.17,3.17,0,0,1-1-2.27,4.64,4.64,0,0,1-2,2.35,6.26,6.26,0,0,1-3.31.84,8.52,8.52,0,0,1-3.86-.86,6.7,6.7,0,0,1-2.71-2.39,6.22,6.22,0,0,1-1-3.46,5.23,5.23,0,0,1,1.16-3.55,6.76,6.76,0,0,1,3.67-1.9,30.6,30.6,0,0,1,6.79-.59h1.14v-.51a2.87,2.87,0,0,0-.67-2.11,3.19,3.19,0,0,0-2.27-.65,16.69,16.69,0,0,0-5,1.17,5,5,0,0,1-1.64.34,2.09,2.09,0,0,1-1.68-.76,3,3,0,0,1-.63-2A2.77,2.77,0,0,1,133.2,97a3.31,3.31,0,0,1,1.22-1,14.89,14.89,0,0,1,3.69-1.22,22,22,0,0,1,4.36-.46C145.66,94.25,148,95,149.54,96.54Zm-5.77,13.13a3.92,3.92,0,0,0,1-2.75v-.5h-.67a10.73,10.73,0,0,0-3.82.48,1.65,1.65,0,0,0-1.13,1.62,2.21,2.21,0,0,0,.6,1.59,2.1,2.1,0,0,0,1.58.63A3.19,3.19,0,0,0,143.77,109.67Z" transform="translate(-8.62 -84.23)"/><path class="cls-2" d="M159.42,115.31A10.65,10.65,0,0,1,156,114a2,2,0,0,1-.92-1,3.57,3.57,0,0,1-.34-1.59,2.81,2.81,0,0,1,.61-1.87,1.9,1.9,0,0,1,1.53-.73,5,5,0,0,1,1.18.14,10.54,10.54,0,0,1,1.34.49c.89.3,1.68.54,2.37.71a11.16,11.16,0,0,0,2.62.25,4.12,4.12,0,0,0,1.78-.31,1,1,0,0,0,.65-.91.86.86,0,0,0-.31-.71,3.38,3.38,0,0,0-1.2-.48c-.58-.15-1.58-.37-3-.65a11.67,11.67,0,0,1-5.39-2.16,5.16,5.16,0,0,1-1.65-4.09,5.58,5.58,0,0,1,1.19-3.48,7.94,7.94,0,0,1,3.3-2.44,12.1,12.1,0,0,1,4.69-.88,14.88,14.88,0,0,1,3.67.46,12.1,12.1,0,0,1,3.17,1.3,2.61,2.61,0,0,1,1.3,2.44,3.08,3.08,0,0,1-.63,2,1.91,1.91,0,0,1-1.55.8,6.25,6.25,0,0,1-2.6-.72,16.62,16.62,0,0,0-1.78-.69,6.62,6.62,0,0,0-1.83-.23,3.6,3.6,0,0,0-1.63.31,1,1,0,0,0-.59.91,1.18,1.18,0,0,0,.82,1,16.23,16.23,0,0,0,3.25.83c2.71.48,4.63,1.2,5.74,2.16a5.23,5.23,0,0,1,1.68,4.18,5.72,5.72,0,0,1-2.54,4.89,11.47,11.47,0,0,1-6.81,1.82A22.62,22.62,0,0,1,159.42,115.31Z" transform="translate(-8.62 -84.23)"/><path class="cls-2" d="M191.38,112.84a2.39,2.39,0,0,1-1.13,2.18,5.45,5.45,0,0,1-3.23.58l-1.17-.08a8.62,8.62,0,0,1-5.73-2.29,7.59,7.59,0,0,1-2-5.55v-7.43H177c-2.24,0-3.35-.92-3.35-2.77s1.11-2.72,3.35-2.72h1.22V92a3.29,3.29,0,0,1,1-2.54,4.42,4.42,0,0,1,5.45,0,3.33,3.33,0,0,1,1,2.54v2.73h2.3q3.36,0,3.36,2.72t-3.36,2.77h-2.3v8.06a2,2,0,0,0,.48,1.34,1.73,1.73,0,0,0,1.24.59l1.21.08C190.45,110.43,191.38,111.27,191.38,112.84Z" transform="translate(-8.62 -84.23)"/></svg>