<?xml version="1.0" encoding="utf-8"?>
<!-- Generator: Adobe Illustrator 24.0.1, SVG Export Plug-In . SVG Version: 6.00 Build 0)  -->
<svg version="1.1" id="Layer_1" xmlns="http://www.w3.org/2000/svg" xmlns:xlink="http://www.w3.org/1999/xlink" x="0px" y="0px"
	 viewBox="0 0 175 125.2" style="enable-background:new 0 0 175 125.2;" xml:space="preserve">
<style type="text/css">
	.st0{fill:#FEE863;}
	.st1{fill:none;}
	.st2{fill:#8BD0CE;}
</style>
<g>
	<title>partly-cloudy</title>
	<path class="st0" d="M49.6,74.4c-3.4-1.3-7-1.9-10.7-1.9c-0.5,0-0.9,0.1-1.4,0.2c-0.6-1.6-1-3.3-1.3-5
		c-2.7-16.3,8.3-31.7,24.6-34.4c8.4-1.4,17.1,0.9,23.7,6.3c-4.9,4.4-8.6,10-10.7,16.2h-0.8C61.9,55.8,52.1,63.5,49.6,74.4z"/>
	<line class="st1" x1="51.8" y1="3.7" x2="55.4" y2="21.2"/>
	<path class="st0" d="M56.1,24.8c-2,0.4-4-0.9-4.4-2.9c0,0,0,0,0,0L48.1,4.5c-0.4-2,0.9-4,2.9-4.4C53-0.3,55,1,55.4,3L59,20.4
		C59.4,22.4,58.1,24.4,56.1,24.8C56.1,24.8,56.1,24.8,56.1,24.8z"/>
	<line class="st1" x1="12.9" y1="27.5" x2="31.4" y2="39.6"/>
	<path class="st0" d="M32.2,43.7c-1.1,0.2-2.2,0-3.1-0.6L10.6,31c-1.9-1.3-2.4-3.9-1.2-5.8s3.9-2.4,5.8-1.2l0,0l18.5,12.2
		c1.9,1.3,2.4,3.8,1.2,5.8C34.3,42.9,33.3,43.5,32.2,43.7z"/>
	<line class="st1" x1="4.2" y1="73.1" x2="24.1" y2="69"/>
	<path class="st0" d="M24.9,73L5,77.1c-2.3,0.5-4.5-1-4.9-3.2c-0.5-2.3,1-4.5,3.2-4.9l0,0l19.9-4.1c2.3-0.5,4.5,1,4.9,3.2
		C28.6,70.4,27.1,72.6,24.9,73z"/>
	<line class="st1" x1="84.7" y1="28.6" x2="96.9" y2="10.2"/>
	<path class="st0" d="M85.6,32.7c-2.3,0.5-4.4-1-4.9-3.2c-0.2-1.1,0-2.2,0.6-3.1L93.4,7.9c1.3-1.9,3.9-2.4,5.8-1.2s2.4,3.9,1.2,5.8
		L88.2,31C87.6,31.9,86.6,32.5,85.6,32.7z"/>
	<path class="st2" d="M157.1,124.6c2.1-0.3,4.2-1,6.1-2c7.1-3.8,11.8-13.2,11.8-21c0-13.5-11.3-24.4-25.3-24.4
		c-0.9,0-1.9,0.1-2.8,0.1c0.8-2.9,1.2-5.9,1.2-9c0-19.1-16.1-34.6-35.9-34.6c-17.2,0-31.5,11.7-35.1,27.3c-1.4-0.3-2.8-0.4-4.2-0.4
		c-10.7,0-19.3,8.3-19.3,18.7c0,0.9,0.1,1.9,0.2,2.8c-4.4-3.1-9.6-4.8-15-4.8c-14,0-25.3,10.9-25.3,24.4c0.1,6.6,2.8,12.8,7.5,17.3
		c5.4,5.2,11.3,6.2,18.6,6.2c20.6-0.1,41.2-0.2,61.8-0.1c15.3,0,30.5,0.1,45.8,0.2C150.6,125.3,153.9,125.1,157.1,124.6z"/>
</g>
</svg>
