<?xml version="1.0" encoding="utf-8"?>
<!-- Generator: Adobe Illustrator 24.0.1, SVG Export Plug-In . SVG Version: 6.00 Build 0)  -->
<svg version="1.1" id="Layer_1" xmlns="http://www.w3.org/2000/svg" xmlns:xlink="http://www.w3.org/1999/xlink" x="0px" y="0px"
	 viewBox="0 0 175 154.3" style="enable-background:new 0 0 175 154.3;" xml:space="preserve">
<style type="text/css">
	.st0{fill:#8BD0CE;}
	.st1{fill:none;}
</style>
<g>
	<title>rain</title>
	<path class="st0" d="M155.6,98.7c2.3-0.4,4.5-1.1,6.6-2.2c7.7-4.1,12.8-14.3,12.8-22.8c0-14.6-12.3-26.5-27.4-26.5
		c-1,0-2,0.1-3,0.2c0.9-3.2,1.3-6.4,1.3-9.7C145.9,16.8,128.5,0,107,0C88.3,0,72.8,12.7,69,29.6c-1.5-0.3-3-0.4-4.5-0.4
		c-11.6,0-21,9-21,20.2c0,1,0.1,2,0.2,3C39,49,33.3,47.1,27.5,47.1C12.3,47.1,0,59,0,73.7c0.1,7.1,3,13.9,8.2,18.8
		c5.8,5.6,12.3,6.7,20.2,6.7C50.7,99,73,99,95.3,99c16.5,0,33.1,0.1,49.7,0.2C148.6,99.4,152.1,99.2,155.6,98.7z"/>
	<line class="st1" x1="35" y1="111.5" x2="25.6" y2="150.7"/>
	<path class="st0" d="M25.6,154.1c-0.3,0-0.5,0-0.8-0.1c-1.8-0.4-2.9-2.2-2.5-4c0,0,0,0,0,0l9.4-39.3c0.3-1.8,2.1-3,3.9-2.6
		c1.8,0.3,3,2.1,2.6,3.9c0,0.1,0,0.2-0.1,0.3l-9.4,39.3C28.5,153,27.2,154.1,25.6,154.1z"/>
	<line class="st1" x1="63.8" y1="111.3" x2="54.4" y2="150.5"/>
	<path class="st0" d="M54.4,153.9c-0.3,0-0.5,0-0.8-0.1c-1.8-0.4-2.9-2.2-2.5-4l9.4-39.3c0.5-1.8,2.3-2.8,4.1-2.3
		c1.7,0.5,2.7,2.1,2.3,3.8l-9.4,39.3C57.3,152.8,56,153.8,54.4,153.9z"/>
	<line class="st1" x1="92.7" y1="110.9" x2="83.3" y2="150.1"/>
	<path class="st0" d="M83.3,153.5c-0.3,0-0.5,0-0.8-0.1c-1.8-0.4-2.9-2.2-2.5-4c0,0,0,0,0,0l9.4-39.2c0.5-1.8,2.4-2.8,4.1-2.3
		c1.6,0.5,2.6,2.1,2.3,3.8l-9.4,39.2C86.1,152.4,84.8,153.5,83.3,153.5z"/>
	<line class="st1" x1="121.5" y1="111.7" x2="112.1" y2="150.9"/>
	<path class="st0" d="M112.1,154.3c-0.3,0-0.5,0-0.8-0.1c-1.8-0.4-2.9-2.2-2.5-4l9.4-39.3c0.3-1.8,2.1-3,3.9-2.6
		c1.8,0.3,3,2.1,2.6,3.9c0,0.1,0,0.2-0.1,0.3l-9.4,39.3C114.9,153.2,113.6,154.3,112.1,154.3z"/>
	<line class="st1" x1="149.4" y1="110.9" x2="140" y2="150.1"/>
	<path class="st0" d="M140,153.5c-0.3,0-0.5,0-0.8-0.1c-1.8-0.4-2.9-2.2-2.5-4c0,0,0,0,0,0l9.4-39.2c0.5-1.8,2.4-2.8,4.1-2.3
		c1.6,0.5,2.6,2.1,2.3,3.8l-9.4,39.3C142.8,152.4,141.5,153.5,140,153.5z"/>
</g>
</svg>
