<?xml version="1.0" encoding="utf-8"?>
<!-- Generator: Adobe Illustrator 24.0.1, SVG Export Plug-In . SVG Version: 6.00 Build 0)  -->
<svg version="1.1" id="Layer_1" xmlns="http://www.w3.org/2000/svg" xmlns:xlink="http://www.w3.org/1999/xlink" x="0px" y="0px"
	 viewBox="0 0 175 151.3" style="enable-background:new 0 0 175 151.3;" xml:space="preserve">
<style type="text/css">
	.st0{fill:#8BD0CE;}
</style>
<title>snow</title>
<g>
	<path class="st0" d="M155.6,98.6c2.3-0.4,4.5-1.1,6.6-2.2c7.7-4.1,12.8-14.3,12.8-22.8c0-14.6-12.3-26.5-27.4-26.5c-1,0-2,0-3,0.2
		c0.9-3.2,1.3-6.4,1.3-9.7C145.9,16.8,128.5,0,107,0C88.3,0,72.8,12.7,69,29.6c-1.5-0.3-3-0.5-4.5-0.5c-11.6,0-21,9.1-21,20.3
		c0,1,0.1,2,0.2,3C39,49,33.3,47.1,27.5,47.1C12.3,47.1,0,59,0,73.6c0.1,7.1,3,13.9,8.2,18.8c5.8,5.6,12.3,6.7,20.2,6.7
		C50.7,99,73,98.9,95.3,99c16.5,0,33.1,0.1,49.7,0.2C148.5,99.3,152.1,99.1,155.6,98.6z"/>
	<circle class="st0" cx="36.8" cy="119.3" r="4.9"/>
	<circle class="st0" cx="55.3" cy="113.4" r="4.9"/>
	<circle class="st0" cx="74.6" cy="122" r="4.9"/>
	<circle class="st0" cx="91.6" cy="117.3" r="4.9"/>
	<circle class="st0" cx="97.2" cy="129" r="4.9"/>
	<circle class="st0" cx="110.9" cy="117.5" r="4.9"/>
	<circle class="st0" cx="118.5" cy="128.2" r="4.9"/>
	<circle class="st0" cx="133.4" cy="118.4" r="4.9"/>
	<circle class="st0" cx="36.8" cy="134.9" r="4.9"/>
	<circle class="st0" cx="55.3" cy="129" r="4.9"/>
	<circle class="st0" cx="59.3" cy="146.4" r="4.9"/>
	<circle class="st0" cx="76.3" cy="136.1" r="4.9"/>
	<circle class="st0" cx="90.8" cy="146.4" r="4.9"/>
	<circle class="st0" cx="106.6" cy="140.6" r="4.9"/>
	<circle class="st0" cx="123.4" cy="142" r="4.9"/>
	<circle class="st0" cx="138.2" cy="131.3" r="4.9"/>
</g>
</svg>
