<?xml version="1.0" encoding="utf-8"?>
<!-- Generator: Adobe Illustrator 24.0.1, SVG Export Plug-In . SVG Version: 6.00 Build 0)  -->
<svg version="1.1" id="Layer_1" xmlns="http://www.w3.org/2000/svg" xmlns:xlink="http://www.w3.org/1999/xlink" x="0px" y="0px"
	 viewBox="0 0 175 171.2" style="enable-background:new 0 0 175 171.2;" xml:space="preserve">
<style type="text/css">
	.st0{fill:#FEE863;}
	.st1{fill:none;}
</style>
<title>sunny</title>
<g>
	<circle class="st0" cx="87.5" cy="85.6" r="40.4"/>
	<line class="st1" x1="87.5" y1="141.7" x2="87.5" y2="165.6"/>
	<path class="st0" d="M87.5,171.2c-3.1,0-5.6-2.5-5.6-5.6c0,0,0,0,0,0v-24c0-3.1,2.5-5.6,5.6-5.6c3.1,0,5.6,2.5,5.6,5.6c0,0,0,0,0,0
		v24C93.1,168.7,90.6,171.2,87.5,171.2C87.5,171.2,87.5,171.2,87.5,171.2z"/>
	<line class="st1" x1="87.5" y1="5" x2="87.5" y2="29.1"/>
	<path class="st0" d="M87.5,34.1c-2.8,0-5-2.2-5-5V5c0-2.8,2.2-5,5-5s5,2.2,5,5v24.1C92.5,31.9,90.3,34.1,87.5,34.1
		C87.5,34.1,87.5,34.1,87.5,34.1z"/>
	<line class="st1" x1="127.9" y1="124.1" x2="145.4" y2="141.7"/>
	<path class="st0" d="M145.4,147.3c-1.5,0-2.9-0.6-4-1.6l-17.5-17.5c-2.2-2.2-2.2-5.7,0-7.9s5.7-2.2,7.9,0l17.5,17.5
		c2.2,2.2,2.2,5.8,0,8C148.3,146.7,146.8,147.3,145.4,147.3L145.4,147.3z"/>
	<line class="st1" x1="29.6" y1="25.9" x2="50.7" y2="47"/>
	<path class="st0" d="M50.7,52.6c-1.5,0-2.9-0.6-4-1.7L25.6,29.8c-2.2-2.2-2.2-5.8,0-8c2.2-2.2,5.8-2.2,8,0l0,0l21.1,21.1
		c2.2,2.2,2.2,5.8,0,7.9C53.6,51.9,52.2,52.5,50.7,52.6L50.7,52.6z"/>
	<line class="st1" x1="141.9" y1="83.8" x2="169.4" y2="83.8"/>
	<path class="st0" d="M169.4,89.4h-27.5c-3.1,0-5.6-2.5-5.6-5.6c0-3.1,2.5-5.6,5.6-5.6c0,0,0,0,0,0h27.5c3.1,0,5.6,2.5,5.6,5.6
		C175,86.9,172.5,89.4,169.4,89.4C169.4,89.4,169.4,89.4,169.4,89.4z"/>
	<line class="st1" x1="5.6" y1="83.8" x2="33" y2="83.8"/>
	<path class="st0" d="M33,89.4H5.6c-3.1,0-5.6-2.5-5.6-5.6c0-3.1,2.5-5.6,5.6-5.6H33c3.1,0,5.6,2.5,5.6,5.6
		C38.7,86.9,36.1,89.4,33,89.4z"/>
	<line class="st1" x1="124.3" y1="47" x2="145.4" y2="25.9"/>
	<path class="st0" d="M124.3,52.6c-3.1,0-5.6-2.5-5.6-5.6c0-1.5,0.6-2.9,1.6-4l21.1-21.1c2.2-2.2,5.8-2.2,8,0s2.2,5.8,0,8L128.3,51
		C127.2,52.1,125.8,52.6,124.3,52.6z"/>
	<line class="st1" x1="29.6" y1="141.7" x2="47.1" y2="124.1"/>
	<path class="st0" d="M29.6,147.3c-3.1,0-5.6-2.5-5.6-5.6c0-1.5,0.6-2.9,1.6-4l17.5-17.5c2.2-2.2,5.7-2.2,7.9,0
		c2.2,2.2,2.2,5.7,0,7.9l-17.5,17.5C32.5,146.7,31.1,147.3,29.6,147.3z"/>
</g>
</svg>
